<?xml version="1.0" encoding="UTF-8"?>
<svg id="Layer_1" data-name="Layer 1" xmlns="http://www.w3.org/2000/svg" viewBox="0 0 631 637.5">
  <defs>
    <style>
      .cls-1 {
        fill: #ea4435;
      }

      .cls-1, .cls-2, .cls-3, .cls-4 {
        stroke-width: 0px;
      }

      .cls-2 {
        fill: #557dbf;
      }

      .cls-3 {
        fill: #f9bb16;
      }

      .cls-4 {
        fill: #35a851;
      }
    </style>
  </defs>
  <path class="cls-1" d="M525.46,103.17c-.36,1.53-1.14,1.97-1.72,2.55-27.19,27.21-54.4,54.42-81.6,81.62-.15.15-.3.3-.45.45-1.74,1.69-1.74,1.68-3.49.16-2.24-1.96-4.46-3.95-6.75-5.84-22.46-18.52-48.09-30.12-76.77-34.86-60.95-10.09-121.82,12.41-162.29,59.85-14.91,17.49-26.25,37.03-33.83,58.73-.25.7-.54,1.39-.81,2.07-.88-.57-1.82-1.09-2.65-1.73-11.25-8.71-22.48-17.44-33.72-26.17-11.9-9.25-23.79-18.52-35.7-27.75-9.15-7.09-18.33-14.14-27.49-21.21,4.39-9.33,9.55-18.25,15.16-26.88,38.41-59.08,90.76-100.37,157.54-123.14,17.82-6.08,36.12-10.12,54.78-12.67,18.07-2.46,36.21-3.18,54.38-2.3,70.57,3.41,132.09,28.77,184.28,76.52.38.36.95.51,1.13.6Z"/>
  <path class="cls-4" d="M523.4,551.82c-2.76,3.26-6.15,5.85-9.41,8.56-33.17,27.65-71.05,45.73-112.98,55.61-30.32,7.14-61.07,9.71-92.1,8.01-53.32-2.92-102.48-19-147.14-48.34-43.91-28.84-77.91-66.74-102.21-113.32-.54-1.03-1.21-2.02-1.39-3.2.53-.35,1.09-.66,1.59-1.05,25.23-19.65,50.43-39.33,75.68-58.95,7.3-5.67,14.73-11.16,22.1-16.73,1.12,1.93,1.62,4.12,2.43,6.18,19.31,48.99,52.85,84.2,101.57,104.56,16.66,6.97,34.14,10.85,52.19,11.94,31.48,1.9,61.79-2.87,90.6-16.03,6.87-3.14,13.45-6.8,19.79-10.89.79-.51,1.49-1.22,2.49-1.36.74.6,1.46,1.22,2.21,1.81,25.05,19.43,50.1,38.87,75.16,58.29,6.45,5,12.95,9.94,19.42,14.91Z"/>
  <path class="cls-2" d="M612.74,337.51c-.77,42.35-8.18,83.38-24.83,122.51-12.09,28.41-28.37,54.15-49.29,76.91-4.25,4.62-8.65,9.07-13.18,13.41-.61.58-1.17,1.25-2.04,1.48-6.47-4.97-12.97-9.91-19.42-14.91-25.06-19.42-50.11-38.86-75.16-58.29-.75-.59-1.47-1.21-2.21-1.81,2.54-1.9,5.11-3.77,7.62-5.71,26.82-20.77,44.07-47.65,51.5-80.78.23-1.02.5-2.06.2-3.16-1.3-.69-2.71-.37-4.06-.37-50.69-.02-101.39-.02-152.08-.02-5.11,0-4.49.34-4.49-4.4-.02-35.92,0-71.84,0-107.77,0-4.1-.44-3.81,3.73-3.81h274.52c.53,0,1.07.06,1.59-.01,1.8-.23,2.36.69,2.62,2.35,1.29,8.39,2.51,16.78,3.32,25.24,1.25,13.02,1.91,26.06,1.67,39.14Z"/>
  <path class="cls-3" d="M157.08,379.93c.26.81.53,1.61.46,2.48-7.37,5.57-14.8,11.06-22.1,16.73-25.25,19.62-50.45,39.3-75.68,58.95-.5.39-1.06.7-1.59,1.05-7.58-14.54-13.64-29.7-18.56-45.32-5.76-18.27-9.66-36.93-11.77-55.99-1.63-14.6-2.22-29.24-1.64-43.9,1.68-42.73,12.07-83.25,31.17-121.52.24-.48.55-.91.82-1.37,9.16,7.07,18.34,14.12,27.49,21.21,11.91,9.23,23.8,18.5,35.7,27.75,11.24,8.73,22.47,17.46,33.72,26.17.83.64,1.77,1.16,2.65,1.73-2.88,9.12-5.36,18.33-6.99,27.76-2.59,14.94-3.11,29.96-1.78,45.07,1.17,13.38,4.03,26.41,8.1,39.2Z"/>
</svg>