<?xml version="1.0" encoding="UTF-8"?>
<svg id="Layer_1" data-name="Layer 1" xmlns="http://www.w3.org/2000/svg" viewBox="0 0 127.5 126.5">
  <defs>
    <style>
      .cls-1 {
        fill: none;
        stroke: #231f20;
        stroke-miterlimit: 10;
      }

      .cls-2 {
        fill: #231f20;
        stroke-width: 0px;
      }
    </style>
  </defs>
  <rect class="cls-1" x="1.46" y=".72" width="124" height="124" rx="40.12" ry="40.12"/>
  <g>
    <path class="cls-2" d="M38,63.06c2.81-2.55,5.64-5.08,8.43-7.66,4.79-4.43,9.7-8.7,14.84-12.71,1.26-.98,1.55-2.21.41-3.57-1.06-1.26-1.95-1.16-3.2-.1-3.02,2.57-6.28,4.87-9.26,7.49-5,4.39-9.86,8.93-14.76,13.44-4.85,4.46-6.24,9.95-4.59,16.23.35,1.33.78,2.63,2.42,3.36,1.94.86,3.06,3.02,2.42,4.89-1.24,3.61.91,6.2,1.99,9.11,1.31,3.51,2.78,7.04,3.1,10.72.34,3.89-.59,7.73-3.83,10.52-1.77,1.53-3.85.68-5.79.65-.64,0-1.32-.52-2.09-.51-2.64.04-3.02-1.65-2.08-3.47,2.82-5.42,3.33-11.18,3.08-17.13-.08-1.99-.51-3.45-2.44-4.66-3.39-2.14-4.19-4.61-2.56-8.07.9-1.92.71-3.67.33-5.38-.75-3.38-.75-6.71-.02-10.01.36-1.65-.19-1.83-1.49-1.82-3.09.02-6.18-.06-9.27.04-1.5.05-2.59-.57-3-1.83-.37-1.14-.07-2.12,1.17-3.13,10.28-8.42,20.7-16.64,31.22-24.75,3.31-2.55,6.64-5.11,9.76-7.89,1.9-1.7,4.07-2.05,6.34-2.06,16.62-.05,33.24-.03,49.86-.03,1.35,0,2.78-.3,3.33,1.58.45,1.52-.43,2.36-1.36,3.13-4.85,3.99-9.71,7.98-14.63,11.89-7.53,5.97-15.25,11.71-22.62,17.87-3.62,3.02-7.11,4.98-12.11,4.68-7.64-.46-15.33-.12-23-.12-.2-.23-.39-.45-.59-.68Z"/>
    <path class="cls-2" d="M52.26,69.5c4.59-.48,10.19.56,15.78-.53,4.13-.81,6.51-4.02,9.54-6.25,6.56-4.83,12.8-10.09,19.15-15.2,1.25-1.01,2.09-.94,2.61.69,1.49,4.63,3.26,9.19,4.42,13.9.83,3.36-.95,6.35-3.04,8.88-4.63,5.61-10.72,9.4-17.15,12.46-7.02,3.33-14.4,5.87-22.15,6.95-5.68.79-11.42,1.06-17.07-.46-1.85-.5-2.83-1.62-2.49-3.72.66-4.03-.86-7.55-4.43-9.23-2.77-1.3-2.69-3.84-3.11-6.03-.3-1.53,1.42-1.45,2.59-1.45,4.79,0,9.58,0,15.36,0Z"/>
  </g>
</svg>