<?xml version="1.0" encoding="UTF-8"?>
<svg id="Layer_1" data-name="Layer 1" xmlns="http://www.w3.org/2000/svg" viewBox="0 0 738.71 320.54">
  <defs>
    <style>
      .cls-1 {
        fill: #f0523c;
      }

      .cls-1, .cls-2 {
        stroke-width: 0px;
      }

      .cls-2 {
        fill: #1e539e;
      }
    </style>
  </defs>
  <g>
    <path class="cls-1" d="M35.52,288.43l-5.43,4.59-8.99-3.58c-2.02-.76-2.43-3.92-1.24-9.46.41-1.67,2.14-3.46,5.19-5.38l8.84-5.73c-.15-.81-.28-1.65-.39-2.51l9.84-3.37c.46,7.12.72,14.72.77,22.79h4.42v9.32h-13.02v-6.67ZM28.93,249.22l5.74,5.16c-1.34,2.06-3.26,3.82-5.74,5.3l-5.74-5.3c2.48-1.48,4.39-3.2,5.74-5.16ZM34.59,274.6c-5.94,3.44-9.22,5.71-9.84,6.81,3.77,2.96,7.23,2.8,10.39-.5-.1-2.01-.29-4.11-.54-6.31ZM37.46,249.22l5.74,5.16c-1.34,2.06-3.26,3.82-5.74,5.3l-5.58-5.3c2.38-1.48,4.24-3.2,5.58-5.16Z"/>
    <path class="cls-1" d="M59.78,285.78c-.26-3.34-1.73-7.79-4.42-13.33l11.24-3.23c.77,5.83,1.19,11.35,1.24,16.56h5.04v9.32h-2.79c-.83-.72-1.63-1.55-2.4-2.51,0,.19-.08,1.03-.23,2.51h-19.77v-9.32h12.09ZM53.73,298.97l5.58,5.16c-1.34,2.06-3.2,3.82-5.58,5.3l-5.74-5.3c2.43-1.48,4.34-3.2,5.74-5.16ZM62.73,298.97l5.74,5.16c-1.39,2.06-3.31,3.82-5.74,5.3l-5.66-5.3c2.43-1.48,4.31-3.2,5.66-5.16Z"/>
    <path class="cls-1" d="M77.22,285.78c-3.93-4.21-4.01-8.98-.23-14.34,2.22-3.3,4.83-5.06,7.83-5.3,4.13-.24,7.49,1.67,10.08,5.73,2.33,3.54,2.38,8.17.15,13.91h4.96v9.32h-3.8c-3.88,0-7.03-.57-9.46-1.72-2.38,1.1-6.77,1.67-13.18,1.72h-1.55v-9.32h5.19ZM79.08,251.37l5.74,5.16c-1.34,2.06-3.26,3.82-5.74,5.3l-5.74-5.3c2.48-1.48,4.39-3.2,5.74-5.16ZM81.41,280.19c.83,1.39,2.89,2.53,6.2,3.44,3.26-2.53,3.46-5.14.62-7.81-1.19-1.05-2.27-1.55-3.26-1.51-.77.05-1.63.55-2.56,1.51-1.45,1.62-1.78,3.08-1.01,4.37ZM87.61,251.37l5.74,5.16c-1.34,2.06-3.26,3.82-5.74,5.3l-5.58-5.3c2.38-1.48,4.24-3.2,5.58-5.16Z"/>
    <path class="cls-1" d="M111.26,285.78c-.26-3.34-1.73-7.79-4.42-13.33l11.24-3.23c.77,5.83,1.19,11.35,1.24,16.56h5.04v9.32h-2.79c-.83-.72-1.63-1.55-2.4-2.51,0,.19-.08,1.03-.23,2.51h-19.77v-9.32h12.09ZM105.21,298.97l5.58,5.16c-1.34,2.06-3.2,3.82-5.58,5.3l-5.74-5.3c2.43-1.48,4.34-3.2,5.74-5.16ZM114.2,298.97l5.74,5.16c-1.39,2.06-3.31,3.82-5.74,5.3l-5.66-5.3c2.43-1.48,4.31-3.2,5.66-5.16Z"/>
    <path class="cls-1" d="M132.88,285.78c-.26-3.34-1.73-7.79-4.42-13.33l11.24-3.23c.78,5.83,1.19,11.35,1.24,16.56h4.26v9.32h-2.02c-.83-.72-1.63-1.55-2.4-2.51,0,.19-.08,1-.23,2.44l-17.05.07v-9.32h9.38ZM132.81,298.97l5.74,5.23c-1.39,2.01-3.31,3.75-5.74,5.23l-5.66-5.23c2.43-1.53,4.32-3.27,5.66-5.23Z"/>
    <path class="cls-1" d="M181.8,295.1c-.93-.67-1.78-1.51-2.56-2.51-.18,1.17-.41,2.01-.7,2.51-11.63.24-21.65.24-30.08,0h-4.11v-9.32h4.11c.1-.24.23-.55.39-.93.16-.33.28-.62.39-.86-.26-7.93-.6-13.05-1.01-15.34l-1.86-13.4,9.22-4.09,1.94,6.09-1.47,4.09-.47,12.26-.31,2.15c.47-.52,1.58-1.48,3.33-2.87,4.39-3.34,9.07-4.66,14.03-3.94,3.77.72,6.25,3.27,7.44,7.67.52,2.58.62,5.64.31,9.18h3.33v9.32h-1.94ZM172.5,286.43c0-5.88-2.3-8.82-6.9-8.82-4.96,0-8.92,2.94-11.86,8.82,6.98.14,13.23.14,18.76,0Z"/>
    <path class="cls-1" d="M193.27,285.78c-.26-3.34-1.73-7.79-4.42-13.33l11.24-3.23c.78,5.83,1.19,11.35,1.24,16.56h5.04v9.32h-2.79c-.83-.72-1.63-1.55-2.4-2.51,0,.19-.08,1.03-.23,2.51h-18.06v-9.32h10.39ZM189.71,254.96l5.58,5.16c-1.34,2.06-3.2,3.82-5.58,5.3l-5.74-5.3c2.48-1.48,4.39-3.2,5.74-5.16ZM198.7,254.96l5.74,5.16c-1.34,2.06-3.26,3.82-5.74,5.3l-5.58-5.3c2.38-1.48,4.24-3.2,5.58-5.16Z"/>
    <path class="cls-1" d="M220.33,295.1h-14.81v-9.32h6.05c-.1-5.4-1.37-15.86-3.8-31.4l11.24-3.23,1.94,5.95-1.47,4.23c.52,7.55.8,15.72.85,24.51v9.25Z"/>
    <path class="cls-1" d="M229.01,295.03c.57-11.8-.57-25.37-3.41-40.71l11.24-3.23c1.45,14.53,1.91,29.2,1.4,44.01l-9.23-.07Z"/>
    <path class="cls-1" d="M286.22,292.52c-.57,3.49-2.22,6.71-4.96,9.68-3.46,3.01-7.57,4.61-12.33,4.8-3.2,0-6.25-.96-9.15-2.87-4.81-3.3-6.62-7.26-5.43-11.9,1.29-3.87,2.12-6.33,2.48-7.38l4.5-2.94c-.26,1-.52,3.47-.78,7.38,0,3.25,1.11,5.64,3.33,7.17,1.39.96,3.15,1.51,5.27,1.65,7.18-.38,10.59-2.46,10.23-6.24-.52-5.4-1.63-10.25-3.33-14.55l9.69-2.72c.78,3.63,1.11,7.36,1.01,11.18h3.88v9.32h-2.02c-.83-.72-1.63-1.58-2.4-2.58ZM268.58,267.18l5.66,5.3c-1.34,1.96-3.23,3.73-5.66,5.3l-5.74-5.3c2.43-1.58,4.34-3.34,5.74-5.3Z"/>
    <path class="cls-1" d="M320.1,295.1c-.78-.62-1.47-1.41-2.09-2.37-.98,2.29-1.6,3.65-1.86,4.09-7.49.14-13.18-.86-17.05-3.01-2.07.81-4.13,1.24-6.2,1.29h-3.1v-9.32h2.4c-1.03-1.48-1.6-2.82-1.71-4.01-.31-3.3,1.11-6.14,4.26-8.53,3.1-2.39,6.25-3.11,9.46-2.15-.52-.62-1.08-1.24-1.71-1.86l4.73-5.95c7.7,7.41,11.6,14.81,11.71,22.22v.29h2.95v9.32h-1.78ZM296.84,280.48c-.1.38,1.19,1.91,3.88,4.59,1.14-.67,1.86-1.74,2.17-3.23.31-1.58-.03-2.8-1.01-3.66-2.95-.14-4.63.62-5.04,2.29ZM308.39,279.97c-.1,1.48-.49,2.84-1.16,4.09-.52.86-1.14,1.7-1.86,2.51.78.48,1.94.86,3.49,1.15,1.76.33,2.71.29,2.87-.14.31-1.43-.8-3.97-3.33-7.6Z"/>
    <path class="cls-1" d="M346.22,292.59c-.78,1.43-1.68,2.56-2.71,3.37-4.96-.48-9.53-1.7-13.72-3.66-1.65,1.86-3.67,2.8-6.05,2.8h-2.71v-9.32h2.64c1.29-.05,2.48-1.12,3.57-3.23,4.08-7.93,7.91-11.87,11.47-11.83,2.38,0,4.63,1.43,6.74,4.3,2.12,2.82,3.02,6.4,2.71,10.75h2.56v9.32h-1.94c-.93-.67-1.78-1.51-2.56-2.51ZM332.89,283.92c1.14.77,2.48,1.55,4.03,2.37,3,1.63,4.39.88,4.19-2.22-.21-3.15-1.45-4.73-3.72-4.73-1.29,0-2.79,1.53-4.5,4.59Z"/>
    <path class="cls-1" d="M355.91,285.78c-.1-5.45-1.37-15.91-3.8-31.4l11.24-3.23,2.01,5.95-1.55,4.09c.52,7.65.8,15.84.85,24.59h5.58v9.32h-3.1c-.88-.67-1.71-1.46-2.48-2.37v2.37h-14.81v-9.32h6.05Z"/>
    <path class="cls-1" d="M384.21,295.1h-14.81v-9.32h6.05c-.1-5.4-1.37-15.86-3.8-31.4l11.24-3.23,1.94,5.95-1.47,4.23c.52,7.55.8,15.72.85,24.51v9.25Z"/>
    <path class="cls-1" d="M401.38,289.36l4.57-3.08c-.26.86-.52,3.37-.77,7.53,0,5.45,2.82,8.39,8.45,8.82,8.73-.48,11.71-5.83,8.92-16.06-.78-3.34-1.68-5.78-2.71-7.31l10.62-2.87c.52,2.39.78,5.54.78,9.46h.31c1.7-4.01,4.42-7.88,8.14-11.61,4.13-3.77,8.3-5.76,12.48-5.95,6.05.38,9.74,3.08,11.09,8.1,1.34,5.26.83,11.47-1.55,18.64-12.92,1.24-23.13,1.24-30.62,0-1.34,11.04-7.16,16.56-17.44,16.56-4.19,0-7.91-1.51-11.16-4.52-3.36-3.11-4.55-6.57-3.57-10.39,1.29-3.87,2.12-6.31,2.48-7.31ZM435.64,286.28c9.72.81,16.36.74,19.92-.21,0-5.69-2.33-8.53-6.98-8.53-5.53,0-9.85,2.92-12.95,8.74Z"/>
    <path class="cls-1" d="M486.11,295.1h-1.94l-13.53-.07c.57-11.8-.57-25.37-3.41-40.71l11.24-3.23c1.14,11.47,1.63,23.03,1.47,34.69h6.16v9.32Z"/>
    <path class="cls-1" d="M505.99,291.48c-.88.67-1.67,1.17-2.37,1.51-2.43,1.2-4.7,1.9-6.82,2.11-.49.05-2.21.05-5.15,0h-6.4v-9.32h6.24c4.11.05,6.74-.13,7.91-.54.75-.29,2.02-.96,3.8-2.01,1.76-1.05,2.68-1.65,2.75-1.79-2.69-1.91-4.08-2.89-4.19-2.94-2.92-1.48-5-2.38-6.24-2.69-1.19-.29-2.29-.27-3.29.04-.85.29-1.69.92-2.52,1.9l-2.83.9c.08-4.16.61-6.94,1.59-8.35,1.01-1.48,2.25-2.5,3.72-3.05,2.69-1.05,6.1-.27,10.23,2.33.88.55,2.75,1.83,5.62,3.83,2.27,1.6,4.16,2.8,5.66,3.58,1.45.74,2.72,1.24,3.84,1.51l.78.18-2.25,5.3c-1.55.24-2.97.84-4.26,1.79h7.87v9.32c-6.33,0-10.89-1.21-13.68-3.62ZM495.02,251.8l5.74,5.3c-1.34,1.96-3.26,3.73-5.74,5.3l-5.66-5.3c2.43-1.58,4.31-3.34,5.66-5.3Z"/>
    <path class="cls-1" d="M533.39,295.1h-14.81v-9.32h6.05c-.1-5.4-1.37-15.86-3.8-31.4l11.24-3.23,1.94,5.95-1.47,4.23c.52,7.55.8,15.72.85,24.51v9.25Z"/>
    <path class="cls-1" d="M542.08,295.03c.57-11.8-.57-25.37-3.41-40.71l11.24-3.23c1.45,14.53,1.91,29.2,1.39,44.01l-9.22-.07Z"/>
    <path class="cls-1" d="M591.88,295.1c-.98-.67-1.84-1.53-2.56-2.58l-.31,1.15c0,.24-.08.72-.23,1.43-6.98.19-14.55.19-22.71,0v-9.32c5.63.96,10.83.96,15.58,0-1.34-5.64-3.28-10.63-5.81-14.98l9.61-3.87c2.79,6.36,4.24,12.64,4.34,18.85h3.88v9.32h-1.78Z"/>
    <path class="cls-1" d="M623.51,295.1c-.78-.62-1.47-1.41-2.09-2.37-.98,2.29-1.6,3.65-1.86,4.09-7.49.14-13.18-.86-17.05-3.01-2.07.81-4.13,1.24-6.2,1.29h-3.1v-9.32h2.4c-1.03-1.48-1.6-2.82-1.71-4.01-.31-3.3,1.11-6.14,4.26-8.53,3.1-2.39,6.25-3.11,9.46-2.15-.52-.62-1.08-1.24-1.71-1.86l4.73-5.95c7.7,7.41,11.6,14.81,11.71,22.22v.29h2.95v9.32h-1.78ZM600.26,280.48c-.1.38,1.19,1.91,3.88,4.59,1.14-.67,1.86-1.74,2.17-3.23.31-1.58-.03-2.8-1.01-3.66-2.95-.14-4.63.62-5.04,2.29ZM611.81,279.97c-.1,1.48-.49,2.84-1.16,4.09-.52.86-1.14,1.7-1.86,2.51.78.48,1.94.86,3.49,1.15,1.76.33,2.71.29,2.87-.14.31-1.43-.8-3.97-3.33-7.6Z"/>
    <path class="cls-1" d="M634.52,284.92c2.22-3.63-.72-6.38-8.84-8.24l5.35-9.53c.67-.14,1.45-.29,2.33-.43,12.82-2.39,20.31-1,22.48,4.16,1.86,4.44-.13,9.41-5.97,14.91h7.99v9.32c-9.82.1-15.69-1.03-17.6-3.37-3.57,2.15-7.26,3.27-11.09,3.37h-4.73v-9.32h4.57c3.2,0,5.04-.29,5.5-.86ZM642.27,281.41c5.17-4.01,7.08-6.4,5.74-7.17-.93-.57-5.19-.43-12.79.43,3.57.96,5.92,3.2,7.05,6.74Z"/>
    <path class="cls-1" d="M682.58,292.59c-.78,1.43-1.68,2.56-2.71,3.37-4.96-.48-9.53-1.7-13.72-3.66-1.65,1.86-3.67,2.8-6.05,2.8h-2.71v-9.32h2.64c1.29-.05,2.48-1.12,3.57-3.23,4.08-7.93,7.91-11.87,11.47-11.83,2.38,0,4.63,1.43,6.74,4.3,2.12,2.82,3.02,6.4,2.71,10.75h2.56v9.32h-1.94c-.93-.67-1.78-1.51-2.56-2.51ZM669.25,283.92c1.14.77,2.48,1.55,4.03,2.37,3,1.63,4.39.88,4.19-2.22-.21-3.15-1.45-4.73-3.72-4.73-1.29,0-2.79,1.53-4.5,4.59Z"/>
    <path class="cls-1" d="M701.03,295.1h-14.81v-9.32h6.05c-.1-5.4-1.37-15.86-3.8-31.4l11.24-3.23,1.94,5.95-1.47,4.23c.52,7.55.8,15.72.85,24.51v9.25Z"/>
    <path class="cls-1" d="M709.71,295.03c.57-11.8-.57-25.37-3.41-40.71l11.24-3.23c1.45,14.53,1.91,29.2,1.39,44.01l-9.22-.07Z"/>
  </g>
  <g>
    <path class="cls-2" d="M29.24,208.11v28.02h-7.12v-28.02h7.12Z"/>
    <path class="cls-2" d="M53.79,222.57v13.56h-6.32v-11.56c0-3.02-1.07-4.04-3.16-4.04-2.41,0-3.79,1.21-3.79,4v11.6h-6.32v-20.07h6.32v2.9h.08c1.07-1.84,3.04-3.53,6.64-3.53,3.91,0,6.56,2.55,6.56,7.13Z"/>
    <path class="cls-2" d="M76.01,230.21c0,4.23-3.24,6.55-8.85,6.55-7.23,0-10-3.21-10.2-7.29h5.93c.2,2,1.54,2.98,4.03,2.98,1.78,0,2.77-.59,2.77-1.72,0-1.72-1.9-1.96-5.1-2.66-3.44-.74-7.23-2-7.23-6.19,0-3.65,3.16-6.43,8.85-6.43,6.48,0,9.01,3.25,9.21,6.78h-5.93c-.2-1.61-1.07-2.47-3.12-2.47-1.78,0-2.69.63-2.69,1.61,0,1.41,1.26,1.45,4.39,2.12,3.99.86,7.95,2.19,7.95,6.74Z"/>
    <path class="cls-2" d="M87,220.76v8.31c0,2.27.83,2.27,3.52,2.27v4.7c-1.15.24-2.13.43-3.91.43-4.63,0-5.93-2.43-5.93-6.94v-8.78h-2.81v-4.7h2.81v-5.6h6.32v5.6h3.52v4.7h-3.52Z"/>
    <path class="cls-2" d="M94.31,210.89c0-1.8,1.38-2.78,3.16-2.78s3.16.98,3.16,2.78-1.38,2.78-3.16,2.78-3.16-.94-3.16-2.78ZM100.64,216.06v20.07h-6.32v-20.07h6.32Z"/>
    <path class="cls-2" d="M113.21,220.76v8.31c0,2.27.83,2.27,3.52,2.27v4.7c-1.15.24-2.13.43-3.91.43-4.63,0-5.93-2.43-5.93-6.94v-8.78h-2.81v-4.7h2.81v-5.6h6.32v5.6h3.52v4.7h-3.52Z"/>
    <path class="cls-2" d="M139.98,216.06v20.07h-6.32v-2.9h-.08c-1.07,1.84-3.04,3.53-6.64,3.53-3.91,0-6.56-2.55-6.56-7.13v-13.56h6.32v11.56c0,3.02,1.07,4.04,3.16,4.04,2.41,0,3.79-1.21,3.79-4v-11.6h6.32Z"/>
    <path class="cls-2" d="M152.55,220.76v8.31c0,2.27.83,2.27,3.52,2.27v4.7c-1.15.24-2.13.43-3.91.43-4.63,0-5.93-2.43-5.93-6.94v-8.78h-2.81v-4.7h2.81v-5.6h6.32v5.6h3.52v4.7h-3.52Z"/>
    <path class="cls-2" d="M188.21,208.11v28.02h-6.32v-2h-.08c-.79,1.06-2.93,2.63-5.85,2.63-5.38,0-8.82-4.08-8.82-10.66s3.44-10.66,8.82-10.66c2.93,0,5.06,1.57,5.85,2.63h.08v-9.95h6.32ZM181.77,226.09c0-3.92-1.58-5.96-4.15-5.96s-4.15,2.04-4.15,5.96,1.58,5.96,4.15,5.96,4.15-2.04,4.15-5.96Z"/>
    <path class="cls-2" d="M206.12,230.05h6.29c-1.11,4.04-4.27,6.7-9.76,6.7-6.72,0-10.79-4.39-10.79-10.66s3.99-10.66,10.44-10.66c6.92,0,10.44,5.02,10.44,12.31h-14.55c0,2.82,2.1,4.31,4.35,4.31s3.2-1.02,3.6-2ZM198.18,223.94h8.22c0-2.78-1.7-4.19-4.11-4.19s-4.11,1.41-4.11,4.19Z"/>
    <path class="cls-2" d="M234.19,230.21c0,4.23-3.24,6.55-8.85,6.55-7.23,0-10-3.21-10.2-7.29h5.93c.2,2,1.54,2.98,4.03,2.98,1.78,0,2.77-.59,2.77-1.72,0-1.72-1.9-1.96-5.1-2.66-3.44-.74-7.23-2-7.23-6.19,0-3.65,3.16-6.43,8.85-6.43,6.48,0,9.01,3.25,9.21,6.78h-5.93c-.2-1.61-1.07-2.47-3.12-2.47-1.78,0-2.69.63-2.69,1.61,0,1.41,1.26,1.45,4.39,2.12,3.99.86,7.95,2.19,7.95,6.74Z"/>
    <path class="cls-2" d="M246.33,208.11h8.7l5.81,17.87h.08l5.81-17.87h8.7v28.02h-6.72v-17.44h-.08l-5.26,17.44h-4.98l-5.26-17.44h-.08v17.44h-6.72v-28.02Z"/>
    <path class="cls-2" d="M294.13,230.05h6.29c-1.11,4.04-4.27,6.7-9.76,6.7-6.72,0-10.79-4.39-10.79-10.66s3.99-10.66,10.44-10.66c6.92,0,10.44,5.02,10.44,12.31h-14.55c0,2.82,2.09,4.31,4.35,4.31s3.2-1.02,3.6-2ZM286.18,223.94h8.22c0-2.78-1.7-4.19-4.11-4.19s-4.11,1.41-4.11,4.19ZM292.59,213.4h-4.74l1.7-5.49h7.12l-4.07,5.49Z"/>
    <path class="cls-2" d="M312,220.76v8.31c0,2.27.83,2.27,3.52,2.27v4.7c-1.15.24-2.13.43-3.91.43-4.63,0-5.93-2.43-5.93-6.94v-8.78h-2.81v-4.7h2.81v-5.6h6.32v5.6h3.52v4.7h-3.52Z"/>
    <path class="cls-2" d="M319.31,210.89c0-1.8,1.38-2.78,3.16-2.78s3.16.98,3.16,2.78-1.38,2.78-3.16,2.78-3.16-.94-3.16-2.78ZM325.64,216.06v20.07h-6.32v-20.07h6.32Z"/>
    <path class="cls-2" d="M343.55,230.05h6.29c-1.11,4.04-4.27,6.7-9.76,6.7-6.72,0-10.79-4.39-10.79-10.66s3.99-10.66,10.44-10.66c6.92,0,10.44,5.02,10.44,12.31h-14.55c0,2.82,2.09,4.31,4.35,4.31s3.2-1.02,3.6-2ZM335.6,223.94h8.22c0-2.78-1.7-4.19-4.11-4.19s-4.11,1.41-4.11,4.19Z"/>
    <path class="cls-2" d="M366.87,215.87v5.49h-.08c-3.24-.59-6.68,1.18-6.68,5.45v9.33h-6.32v-20.07h6.32v3.29h.08c.99-2.23,2.73-3.65,4.94-3.65.55,0,1.03,0,1.74.16Z"/>
    <path class="cls-2" d="M388.22,230.21c0,4.23-3.24,6.55-8.85,6.55-7.23,0-10-3.21-10.2-7.29h5.93c.2,2,1.54,2.98,4.03,2.98,1.78,0,2.77-.59,2.77-1.72,0-1.72-1.9-1.96-5.1-2.66-3.44-.74-7.23-2-7.23-6.19,0-3.65,3.16-6.43,8.85-6.43,6.48,0,9.01,3.25,9.21,6.78h-5.93c-.2-1.61-1.07-2.47-3.12-2.47-1.78,0-2.69.63-2.69,1.61,0,1.41,1.26,1.45,4.39,2.12,3.99.86,7.95,2.19,7.95,6.74Z"/>
    <path class="cls-2" d="M407.32,230.29l-1.82,5.84h-7.12l10.24-28.02h7.12l10.2,28.02h-7.12l-1.82-5.84h-9.69ZM415.43,224.92l-3.2-10.35h-.08l-3.2,10.35h6.48Z"/>
    <path class="cls-2" d="M450.06,226.09c0,6.58-3.44,10.66-8.82,10.66-2.93,0-5.06-1.57-5.85-2.63h-.08v8.94h-6.32v-27h6.32v2h.08c.79-1.06,2.93-2.63,5.85-2.63,5.38,0,8.82,4.08,8.82,10.66ZM443.73,226.09c0-3.92-1.58-5.96-4.15-5.96s-4.15,2.04-4.15,5.96,1.58,5.96,4.15,5.96,4.15-2.04,4.15-5.96Z"/>
    <path class="cls-2" d="M474.93,226.09c0,6.58-3.44,10.66-8.82,10.66-2.93,0-5.06-1.57-5.85-2.63h-.08v8.94h-6.32v-27h6.32v2h.08c.79-1.06,2.93-2.63,5.85-2.63,5.38,0,8.82,4.08,8.82,10.66ZM468.6,226.09c0-3.92-1.58-5.96-4.15-5.96s-4.15,2.04-4.15,5.96,1.58,5.96,4.15,5.96,4.15-2.04,4.15-5.96Z"/>
    <path class="cls-2" d="M485.09,208.11v28.02h-6.32v-28.02h6.32Z"/>
    <path class="cls-2" d="M489.48,210.89c0-1.8,1.38-2.78,3.16-2.78s3.16.98,3.16,2.78-1.38,2.78-3.16,2.78-3.16-.94-3.16-2.78ZM495.8,216.06v20.07h-6.32v-20.07h6.32Z"/>
    <path class="cls-2" d="M520.67,216.06v27h-6.32v-8.94h-.08c-.79,1.06-2.93,2.63-5.85,2.63-5.38,0-8.82-4.08-8.82-10.66s3.44-10.66,8.82-10.66c2.93,0,5.06,1.57,5.85,2.63h.08v-2h6.32ZM514.23,226.09c0-3.92-1.58-5.96-4.15-5.96s-4.15,2.04-4.15,5.96,1.58,5.96,4.15,5.96,4.15-2.04,4.15-5.96Z"/>
    <path class="cls-2" d="M544.67,216.06v20.07h-6.32v-2.9h-.08c-1.07,1.84-3.04,3.53-6.64,3.53-3.91,0-6.56-2.55-6.56-7.13v-13.56h6.32v11.56c0,3.02,1.07,4.04,3.16,4.04,2.41,0,3.79-1.21,3.79-4v-11.6h6.32Z"/>
    <path class="cls-2" d="M562.58,230.05h6.29c-1.11,4.04-4.27,6.7-9.76,6.7-6.72,0-10.79-4.39-10.79-10.66s3.99-10.66,10.44-10.66c6.92,0,10.44,5.02,10.44,12.31h-14.55c0,2.82,2.1,4.31,4.35,4.31s3.2-1.02,3.6-2ZM554.63,223.94h8.22c0-2.78-1.7-4.19-4.11-4.19s-4.11,1.41-4.11,4.19ZM561.04,213.4h-4.74l1.7-5.49h7.12l-4.07,5.49Z"/>
    <path class="cls-2" d="M590.65,230.21c0,4.23-3.24,6.55-8.85,6.55-7.23,0-10-3.21-10.2-7.29h5.93c.2,2,1.54,2.98,4.03,2.98,1.78,0,2.77-.59,2.77-1.72,0-1.72-1.9-1.96-5.1-2.66-3.44-.74-7.23-2-7.23-6.19,0-3.65,3.16-6.43,8.85-6.43,6.48,0,9.01,3.25,9.21,6.78h-5.93c-.2-1.61-1.07-2.47-3.12-2.47-1.78,0-2.69.63-2.69,1.61,0,1.41,1.26,1.45,4.39,2.12,3.99.86,7.95,2.19,7.95,6.74Z"/>
    <path class="cls-2" d="M602.79,208.11h13.72c5.89,0,9.57,3.06,9.57,8.94s-3.68,8.94-9.57,8.94h-6.6v10.15h-7.12v-28.02ZM609.9,220.22h5.1c2.45,0,3.95-.82,3.95-3.17s-1.5-3.17-3.95-3.17h-5.1v6.35Z"/>
    <path class="cls-2" d="M642.72,215.87v5.49h-.08c-3.24-.59-6.68,1.18-6.68,5.45v9.33h-6.32v-20.07h6.32v3.29h.08c.99-2.23,2.73-3.65,4.94-3.65.55,0,1.03,0,1.74.16Z"/>
    <path class="cls-2" d="M646.24,210.89c0-1.8,1.38-2.78,3.16-2.78s3.16.98,3.16,2.78-1.38,2.78-3.16,2.78-3.16-.94-3.16-2.78ZM652.56,216.06v20.07h-6.32v-20.07h6.32Z"/>
    <path class="cls-2" d="M661.78,216.06l4.11,13.09h.08l4.11-13.09h6.32l-7,20.07h-6.96l-7-20.07h6.32Z"/>
    <path class="cls-2" d="M691.86,230.05h6.29c-1.11,4.04-4.27,6.7-9.76,6.7-6.72,0-10.79-4.39-10.79-10.66s3.99-10.66,10.44-10.66c6.92,0,10.44,5.02,10.44,12.31h-14.55c0,2.82,2.1,4.31,4.35,4.31s3.2-1.02,3.6-2ZM683.92,223.94h8.22c0-2.78-1.7-4.19-4.11-4.19s-4.11,1.41-4.11,4.19ZM690.32,213.4h-4.74l1.7-5.49h7.12l-4.07,5.49Z"/>
    <path class="cls-2" d="M715.46,230.05h6.29c-1.11,4.04-4.27,6.7-9.76,6.7-6.72,0-10.79-4.39-10.79-10.66s3.99-10.66,10.44-10.66c6.92,0,10.44,5.02,10.44,12.31h-14.55c0,2.82,2.09,4.31,4.35,4.31s3.2-1.02,3.6-2ZM707.52,223.94h8.22c0-2.78-1.7-4.19-4.11-4.19s-4.11,1.41-4.11,4.19Z"/>
  </g>
  <polygon class="cls-2" points="411.66 185.44 411.66 185.71 411.38 185.71 411.66 185.44"/>
  <polygon class="cls-2" points="295.04 185.44 295.04 185.99 261.53 185.99 261.53 185.44 261.8 185.71 294.5 185.71 295.04 185.44"/>
  <g>
    <path class="cls-2" d="M633.05,129.36v56.03h-32.77V26.36h62.04c11.94,0,22.45,2.18,31.51,6.55,9.07,4.37,16.04,10.58,20.92,18.62,4.88,8.05,7.32,17.2,7.32,27.47,0,15.58-5.33,27.87-16,36.86-10.67,8.99-25.43,13.49-44.29,13.49h-28.73ZM633.05,102.82h29.27c8.66,0,15.27-2.04,19.82-6.12,4.55-4.08,6.83-9.9,6.83-17.48s-2.29-14.09-6.88-18.9c-4.59-4.81-10.92-7.28-19-7.43h-30.04v49.91Z"/>
    <path class="cls-2" d="M558.76,119.78l-.25-.63-36.8-93.1h-32.15l-64.35,159.94h34.92l.82-.28,3.81-10.08,3.82-9.81,3.81-10.08,2.18-4.63,4.64-.27h56.67l.81,1.63,2.73,6.81,3.81,10.09,3.55,8.99,2.72,7.35.82.28h34.6l-26.16-66.21ZM523.62,118.42l-.55.27h-15.8l-20.44-.27.28-1.37,3.54-9.81,2.72-6.81,4.09-10.62,3-7.63,2.99-7.36,1.64-4.36.82,1.09,1.63,4.63,3,7.36,2.72,7.08,3.27,8.45,2.18,5.45,2.73,7.08,2.18,6v.82Z"/>
    <polygon class="cls-2" points="307.48 105.45 304.85 101.25 303.97 99.82 307.48 105.45"/>
    <polygon class="cls-2" points="313.26 114.74 311.94 112.69 309.26 108.32 313.26 114.74"/>
    <polygon class="cls-2" points="326.93 136.68 325.83 135.03 322.29 129.31 318.2 122.77 316.47 119.89 326.93 136.68"/>
    <polygon class="cls-2" points="335.42 150.3 335.37 150.29 333.73 147.84 330.7 142.73 335.42 150.3"/>
    <polygon class="cls-2" points="365.89 104.16 365.34 105.06 361.8 110.78 357.98 116.78 353.9 123.32 350.35 129.04 346.27 135.58 343.27 140.21 340.27 145.11 337.28 149.75 337.01 150.02 365.89 104.16"/>
    <rect class="cls-2" x="214.12" y="26.32" width="34.06" height="159.39"/>
    <g>
      <path class="cls-2" d="M70.32,93.53c4.93-4.47,9.89-8.91,14.77-13.42,8.39-7.75,17-15.23,26-22.27,2.2-1.72,2.71-3.87.71-6.25-1.85-2.21-3.42-2.03-5.6-.17-5.3,4.51-11.01,8.53-16.23,13.12-8.75,7.69-17.27,15.65-25.85,23.54-8.49,7.81-10.93,17.43-8.05,28.43.61,2.33,1.36,4.61,4.23,5.88,3.39,1.5,5.37,5.29,4.25,8.56-2.17,6.33,1.59,10.86,3.48,15.95,2.29,6.15,4.87,12.33,5.43,18.79.59,6.82-1.03,13.54-6.71,18.42-3.11,2.67-6.74,1.19-10.14,1.15-1.13-.02-2.3-.91-3.67-.89-4.63.07-5.3-2.9-3.64-6.08,4.95-9.5,5.84-19.58,5.39-30-.15-3.49-.9-6.04-4.27-8.17-5.94-3.75-7.34-8.08-4.48-14.13,1.58-3.35,1.24-6.44.58-9.42-1.31-5.91-1.31-11.76-.04-17.54.64-2.9-.33-3.21-2.62-3.19-5.41.04-10.83-.11-16.24.06-2.63.08-4.54-1-5.26-3.21-.65-2-.13-3.71,2.04-5.49,18-14.74,36.26-29.15,54.68-43.36,5.8-4.47,11.63-8.95,17.09-13.83,3.33-2.97,7.13-3.6,11.11-3.61,29.11-.09,58.23-.05,87.34-.05,2.37,0,4.86-.52,5.84,2.77.79,2.67-.75,4.14-2.38,5.49-8.5,7-17,13.98-25.63,20.82-13.19,10.46-26.71,20.52-39.63,31.3-6.34,5.3-12.45,8.72-21.21,8.2-13.39-.8-26.86-.21-40.3-.21-.35-.4-.69-.79-1.04-1.19Z"/>
      <path class="cls-2" d="M95.3,104.81c8.04-.83,17.84.98,27.65-.93,7.24-1.41,11.4-7.04,16.71-10.95,11.49-8.46,22.42-17.67,33.54-26.62,2.19-1.76,3.66-1.64,4.58,1.2,2.62,8.11,5.71,16.09,7.75,24.34,1.46,5.89-1.66,11.11-5.33,15.55-8.12,9.83-18.77,16.47-30.05,21.82-12.3,5.83-25.23,10.29-38.8,12.17-9.96,1.38-20.01,1.86-29.9-.81-3.23-.87-4.96-2.84-4.35-6.52,1.16-7.06-1.5-13.23-7.77-16.17-4.86-2.28-4.71-6.73-5.45-10.56-.52-2.67,2.49-2.54,4.53-2.54,8.39,0,16.78,0,26.9,0Z"/>
    </g>
    <polygon class="cls-2" points="379.78 185.71 377.64 185.71 377.64 101.91 377.87 185.44 379.78 185.71"/>
    <polygon class="cls-2" points="303.97 99.82 301.88 96.46 302.67 97.71 303.97 99.82"/>
    <polygon class="cls-2" points="316.47 119.89 313.26 114.74 314.93 117.32 316.47 119.89"/>
    <polygon class="cls-2" points="330.7 142.73 326.93 136.68 328.56 139.12 330.7 142.73"/>
    <polygon class="cls-2" points="411.66 26.32 411.66 185.44 411.38 185.71 379.78 185.71 377.87 185.44 377.64 101.91 377.6 85.72 377.33 85.99 365.89 104.16 337.01 150.02 336.12 151.43 335.42 150.3 330.7 142.73 328.56 139.12 326.93 136.68 316.47 119.89 314.93 117.32 313.26 114.74 309.26 108.32 307.48 105.45 303.97 99.82 302.67 97.71 301.88 96.46 295.04 85.49 295.04 185.44 294.5 185.71 261.8 185.71 261.53 185.44 261.53 26.59 261.8 26.32 297.07 26.32 312.12 51.23 312.21 51.39 336.73 91.98 345.72 76.73 348.65 71.75 349.54 70.19 351.12 67.56 373.12 30.21 375.41 26.32 411.66 26.32"/>
  </g>
</svg>