<?xml version="1.0" encoding="UTF-8"?>
<svg id="Layer_1" data-name="Layer 1" xmlns="http://www.w3.org/2000/svg" viewBox="0 0 504 88">
  <defs>
    <style>
      .cls-1 {
        fill: #eff4ed;
        stroke-width: 0px;
      }
    </style>
  </defs>
  <path class="cls-1" d="M128.49,3.86v47.88c0,12.01-4.09,19.52-18.2,19.52s-19.13-8.04-19.13-19.92V3.86h-15.03v21.5h11.53v37.64h-10.35c2.81,11.14,10.61,18.14,22.55,20.59,3.19.66,6.67.99,10.43.99s7.12-.33,10.22-.99c14.93-3.15,22.88-13.77,22.88-30.8V3.86h-14.91Z"/>
  <path class="cls-1" d="M151.51,3.86v14.11h24.86v66.52h15.32V17.97h24.86V3.86h-65.05Z"/>
  <path class="cls-1" d="M240.79,70.76V3.7h-15.35v80.79h51.84v-13.73h-36.49Z"/>
  <path class="cls-1" d="M329.06,4.93c-.1-.02-.19-.04-.29-.06-.1-.02-.2-.04-.3-.06-3.04-.62-6.28-.95-9.72-.95s-6.68.32-9.72.95c-.1.02-.2.04-.3.06-.1.02-.2.04-.29.06-17.91,3.94-28.4,18.49-28.4,39.06s9.92,35.54,28.12,39.56c3.27.72,6.81,1.1,10.6,1.1s7.3-.38,10.56-1.1c18.14-4.01,28.16-18.77,28.16-39.56s-10.49-35.12-28.4-39.06ZM318.61,71.87c-16.65,0-24-10.97-24-27.88s7.49-27.23,24.13-27.23,24,10.84,24,27.23-7.23,27.88-24.13,27.88Z"/>
  <rect class="cls-1" x="62.42" y="15.33" width="11.54" height="11.54"/>
  <g>
    <rect class="cls-1" x="62.42" y="61.48" width="11.54" height="11.47"/>
    <rect class="cls-1" x="27.81" y="72.95" width="34.61" height="11.54"/>
    <rect class="cls-1" x="16.34" y="61.48" width="11.47" height="11.47"/>
    <rect class="cls-1" x="4.8" y="49.94" width="11.54" height="11.54"/>
    <rect class="cls-1" x="16.34" y="38.41" width="11.47" height="11.54"/>
    <rect class="cls-1" x="4.8" y="26.87" width="11.54" height="11.54"/>
    <rect class="cls-1" x="16.34" y="15.33" width="11.47" height="11.54"/>
    <rect class="cls-1" x="27.81" y="3.86" width="34.61" height="11.48"/>
    <rect class="cls-1" x="73.96" y="26.87" width="11.54" height="34.61"/>
  </g>
  <g>
    <path class="cls-1" d="M476.94,14.86v.12h.55v-.12h-.55ZM431.25,84.25v.13h46.24v-.13h-46.24Z"/>
    <rect class="cls-1" x="442.82" y="26.56" width="11.51" height="11.58"/>
    <polygon class="cls-1" points="477.49 3.83 477.49 14.86 476.94 14.86 476.94 14.98 442.82 14.98 442.82 26.56 431.25 26.56 431.25 3.83 477.49 3.83"/>
    <rect class="cls-1" x="477.49" y="14.98" width="11.58" height="11.58"/>
    <rect class="cls-1" x="489.07" y="26.56" width="11.58" height="34.73"/>
    <polygon class="cls-1" points="477.49 72.81 477.49 84.25 431.25 84.25 431.25 38.14 442.82 38.14 442.82 72.81 477.49 72.81"/>
    <rect class="cls-1" x="477.49" y="61.29" width="11.58" height="11.51"/>
  </g>
  <path class="cls-1" d="M433.89,27.7v9.66h-4.79v34.63c-4.54,7.17-12.24,11.43-22.85,12.51-1.78.18-3.65.27-5.59.27s-3.88-.09-5.7-.27c-18.3-1.82-28.59-12.73-28.59-31.64V3.83h15.09v47.57c0,11.92,4.37,19.99,19.2,19.99s18.27-7.55,18.27-19.6V3.83h10.17v23.86h4.79Z"/>
</svg>