<?xml version="1.0" encoding="UTF-8"?>
<svg id="Layer_1" data-name="Layer 1" xmlns="http://www.w3.org/2000/svg" viewBox="0 0 507 89">
  <defs>
    <style>
      .cls-1 {
        fill: #f8f8f8;
        stroke-width: 0px;
      }
    </style>
  </defs>
  <path class="cls-1" d="M129.13,6.19v47.88c0,12.01-4.09,19.52-18.2,19.52s-19.13-8.04-19.13-19.92V6.19h-15.03v21.5h11.53v37.64h-10.35c2.81,11.14,10.61,18.14,22.55,20.59,3.19.66,6.67.99,10.43.99s7.12-.33,10.22-.99c14.93-3.15,22.88-13.77,22.88-30.8V6.19h-14.91Z"/>
  <path class="cls-1" d="M152.15,6.19v14.11h24.86v66.52h15.32V20.31h24.86V6.19h-65.05Z"/>
  <path class="cls-1" d="M241.43,73.1V6.04h-15.35v80.79h51.84v-13.73h-36.49Z"/>
  <path class="cls-1" d="M329.7,7.27c-.1-.02-.19-.04-.29-.06-.1-.02-.2-.04-.3-.06-3.04-.62-6.28-.95-9.72-.95s-6.68.32-9.72.95c-.1.02-.2.04-.3.06-.1.02-.2.04-.29.06-17.91,3.94-28.4,18.49-28.4,39.06s9.92,35.54,28.12,39.56c3.27.72,6.81,1.1,10.6,1.1s7.3-.38,10.56-1.1c18.14-4.01,28.16-18.77,28.16-39.56s-10.49-35.12-28.4-39.06ZM319.25,74.21c-16.65,0-24-10.97-24-27.88s7.49-27.23,24.13-27.23,24,10.84,24,27.23-7.23,27.88-24.13,27.88Z"/>
  <rect class="cls-1" x="63.06" y="17.67" width="11.54" height="11.54"/>
  <g>
    <rect class="cls-1" x="63.06" y="63.82" width="11.54" height="11.47"/>
    <rect class="cls-1" x="28.45" y="75.29" width="34.61" height="11.54"/>
    <rect class="cls-1" x="16.98" y="63.82" width="11.47" height="11.47"/>
    <rect class="cls-1" x="5.44" y="52.28" width="11.54" height="11.54"/>
    <rect class="cls-1" x="16.98" y="40.74" width="11.47" height="11.54"/>
    <rect class="cls-1" x="5.44" y="29.21" width="11.54" height="11.54"/>
    <rect class="cls-1" x="16.98" y="17.67" width="11.47" height="11.54"/>
    <rect class="cls-1" x="28.45" y="6.19" width="34.61" height="11.48"/>
    <rect class="cls-1" x="74.6" y="29.21" width="11.54" height="34.61"/>
  </g>
  <g>
    <path class="cls-1" d="M431.89,86.59v.13h46.24v-.13h-46.24ZM477.58,17.2v.12h.55v-.12h-.55Z"/>
    <rect class="cls-1" x="443.46" y="28.9" width="11.51" height="11.58"/>
    <polygon class="cls-1" points="478.13 6.17 478.13 17.2 477.58 17.2 477.58 17.32 443.46 17.32 443.46 28.9 431.89 28.9 431.89 6.17 478.13 6.17"/>
    <rect class="cls-1" x="478.13" y="17.32" width="11.58" height="11.58"/>
    <rect class="cls-1" x="489.71" y="28.9" width="11.58" height="34.73"/>
    <polygon class="cls-1" points="478.13 75.14 478.13 86.59 431.89 86.59 431.89 40.48 443.46 40.48 443.46 75.14 478.13 75.14"/>
    <rect class="cls-1" x="478.13" y="63.63" width="11.58" height="11.51"/>
  </g>
  <path class="cls-1" d="M429.74,6.17v68.15c-4.54,7.17-12.25,11.43-22.85,12.51-1.78.18-3.65.28-5.59.28s-3.88-.1-5.7-.28c-18.3-1.82-28.6-12.73-28.6-31.63V6.17h15.1v47.57c0,11.91,4.37,19.99,19.2,19.99s18.27-7.55,18.27-19.59V6.17h10.17Z"/>
</svg>