<?xml version="1.0" encoding="UTF-8"?>
<svg id="Layer_1" data-name="Layer 1" xmlns="http://www.w3.org/2000/svg" viewBox="0 0 450 408">
  <defs>
    <style>
      .cls-1 {
        fill: #424242;
        stroke-width: 0px;
      }
    </style>
  </defs>
  <g>
    <path class="cls-1" d="M328.94,162.64l1.39.23,4.39,3,3.93,3,3.23,2.31,8.78,6.47,4.16,3,2.08,1.62,1.39,1.85.23,1.39-.46.46h-6.7l-3.23.69-2.31,1.15-1.85,1.62-1.39,2.31-1.62,4.16-3,7.62-3.7,8.31-3,6.24-2.77,5.08-2.54,4.62-3,4.85-5.08,7.62-3.7,4.85-2.08,2.77-5.08,6.01-3.46,3.7-5.08,5.08-1.85,1.62-3.46,3-3.23,2.54-3.7,2.77-3.46,2.31-4.16,2.54-3.23,1.85-4.85,2.54-5.31,2.31-5.54,2.08-5.77,1.85-6.47,1.62-8.31,1.39-6.93.69-5.31.23h-5.08l-5.77-.23-9.01-.92-8.31-1.39-8.55-1.85-7.39-2.08-10.62-3.46-9.47-3.7-5.77-2.54-6.01-2.77-4.39-2.08-4.39-2.31-7.85-4.16-2.77-1.39-2.77-.69h-2.54l-2.54.92-1.15,1.15-1.39,1.85-1.39,2.54-1.39,1.15-1.39-.23-.92-.92-.92-3-.46-4.62v-2.08l.46-3.93,1.15-3.7,1.62-2.77,2.08-2.31,2.54-1.62,3-1.39h.23l.46,5.08.92,3.46,1.85,3.93,1.85,2.31,2.08,2.31,3,2.31,3.93,2.31,3.93,1.85,8.31,3.46,8.08,3,8.08,2.54,9.47,2.54,8.55,1.85,8.08,1.39,9.7,1.15,6.01.46,11.09.23,10.16-.46,8.55-.92,8.08-1.39,7.85-1.85,6.7-2.08,6.24-2.31,4.85-2.08,6.47-3.23,6.24-3.7,3.7-2.54,4.39-3.23,3.23-2.77,2.54-2.08,2.31-2.31,1.39-1.15,1.62-1.85,2.31-2.31,2.08-2.54,2.54-3,3-4.16,3-4.39,3-4.85,2.31-4.16,2.77-5.31,3.23-7.16,3-7.85,2.77-8.31,1.15-4.85.46-4.39-.46-4.16-1.15-4.39-1.85-4.39-2.08-3.93-1.85-2.77-1.39-2.31-.23-1.15.23-.46.69-.23Z"/>
    <path class="cls-1" d="M159.41,132.85h2.08l2.31.92,2.31,2.08,2.08,2.54,2.31,4.16,1.85,4.62,1.39,4.62,1.15,5.31.46,3.23.23,6.01-.23,3.93-.92,4.16-1.15,2.77-1.39,1.85-1.85,1.15-1.62.23-2.31-.69-2.54-1.85-2.54-3.23-1.85-3.23-1.62-3.46-1.85-5.54-1.15-5.08-.69-5.08-.23-5.54.46-4.85.92-3.7,1.62-3.23,1.85-1.62.92-.46Z"/>
    <path class="cls-1" d="M262.88,110.91h4.16l3.46.46,1.62.69v.46l-.92.23-5.08.46-4.62.92-4.85,1.85-3,1.62-3.23,2.31-2.31,2.08-2.08,2.31-2.54,4.16-.46,1.62,2.54-2.54,3.93-3,3-1.85,4.39-2.08,4.16-1.15,1.39-.23h6.47l3.7.92,3,1.15,3.46,2.08,2.31,1.85-.69.23-3-.92-3.93-.69h-8.31l-4.62.92-4.16,1.39-4.39,2.08-2.77,1.85-2.77,2.08-2.31,2.08-3.46,3.46-2.08.69-1.15-.46-.46-.69v-3.93l.69-4.16,1.15-3.46,1.85-3.46,1.85-2.31,2.77-2.77,2.31-1.62,4.39-2.31,4.39-1.39,3.7-.69,2.54-.23Z"/>
  </g>
  <path class="cls-1" d="M231.41,374.89c-95.64,0-173.45-77.81-173.45-173.45S135.77,28,231.41,28s173.45,77.81,173.45,173.45-77.81,173.45-173.45,173.45ZM231.41,29.12c-95.02,0-172.32,77.3-172.32,172.32s77.3,172.32,172.32,172.32,172.32-77.3,172.32-172.32S326.43,29.12,231.41,29.12Z"/>
</svg>