<?xml version="1.0" encoding="UTF-8"?>
<svg id="Layer_1" data-name="Layer 1" xmlns="http://www.w3.org/2000/svg" viewBox="0 0 394 398">
  <defs>
    <style>
      .cls-1 {
        fill: #424242;
        stroke-width: 0px;
      }
    </style>
  </defs>
  <path class="cls-1" d="M198.66,289.91c-20.17,0-41.16-5.14-59.59-14.83-25.78-13.55-43.84-34.63-50.84-59.36-.15-.53.16-1.08.69-1.23.53-.15,1.08.16,1.23.69,14.72,51.98,76.59,78.93,125.14,71.5,46.43-7.11,76.88-30.53,93.1-71.59.2-.51.78-.76,1.3-.56.51.2.77.78.56,1.3-16.5,41.79-47.46,65.61-94.65,72.84-5.53.85-11.2,1.26-16.94,1.26Z"/>
  <path class="cls-1" d="M249.28,156.42c-.26,0-.52-.1-.71-.29l-19.2-19.22c-.39-.39-.39-1.02,0-1.41.39-.39,1.02-.39,1.41,0l18.43,18.45c2.43-2.81,5.06-5.25,7.61-7.61,4.86-4.51,9.45-8.77,11.95-14.91.21-.51.79-.76,1.3-.55.51.21.76.79.55,1.3-2.66,6.55-7.41,10.96-12.44,15.62-2.75,2.56-5.6,5.2-8.13,8.26-.18.22-.44.35-.72.36-.02,0-.03,0-.05,0Z"/>
  <path class="cls-1" d="M128.81,176.82c-.23,0-.47-.08-.66-.25-.42-.36-.46-1-.09-1.41,5.04-5.74,10.7-11.04,16.17-16.17,8.93-8.37,18.17-17.03,24.82-27.72.29-.47.91-.61,1.38-.32.47.29.61.91.32,1.38-6.79,10.92-16.13,19.66-25.15,28.12-5.44,5.1-11.06,10.37-16.04,16.03-.2.23-.47.34-.75.34Z"/>
  <path class="cls-1" d="M322.53,222.31c-.26,0-.53-.1-.73-.31-8.01-8.44-18.17-13.27-30.18-14.37-.55-.05-.96-.54-.9-1.09.05-.55.53-.95,1.09-.9,12.51,1.14,23.09,6.18,31.45,14.98.38.4.36,1.03-.04,1.41-.19.18-.44.27-.69.27Z"/>
  <path class="cls-1" d="M269.7,179.76c-.4,0-.77-.24-.93-.62-2.5-6.14-7.09-10.4-11.95-14.91-2.55-2.37-5.18-4.81-7.6-7.61l-19.9,19.92c-.39.39-1.02.39-1.41,0-.39-.39-.39-1.02,0-1.41l20.67-20.69c.2-.2.48-.3.75-.29.28.01.54.14.72.36,2.53,3.06,5.38,5.7,8.13,8.26,5.03,4.67,9.78,9.07,12.44,15.62.21.51-.04,1.09-.55,1.3-.12.05-.25.07-.38.07Z"/>
  <path class="cls-1" d="M166.9,174.76c-.43,0-.83-.28-.96-.72-1.74-6-6.18-9.45-10.89-13.1-2.22-1.72-4.51-3.5-6.48-5.56-.38-.4-.37-1.03.03-1.41.4-.38,1.03-.37,1.41.03,1.87,1.96,4.1,3.69,6.26,5.37,4.75,3.69,9.67,7.51,11.59,14.12.15.53-.15,1.09-.68,1.24-.09.03-.19.04-.28.04Z"/>
  <path class="cls-1" d="M75.98,223.78c-.21,0-.43-.07-.61-.21-.44-.34-.51-.97-.17-1.4,5.99-7.69,14.68-16.36,28.76-15.06.55.05.95.54.9,1.09s-.54.95-1.09.9c-13.13-1.2-21.33,7-27,14.29-.2.25-.49.39-.79.39Z"/>
  <path class="cls-1" d="M147.89,154.81c-.24,0-.49-.09-.68-.27l-19.08-17.61c-.41-.37-.43-1.01-.06-1.41.38-.4,1.01-.43,1.41-.06l19.08,17.61c.41.37.43,1.01.06,1.41-.2.21-.47.32-.74.32Z"/>
  <path class="cls-1" d="M197.93,364.34c-29.96,0-59.88-7.62-85.62-23.18-59.39-35.91-91.67-111.16-76.76-178.94.81-3.67,1.77-7.38,2.86-11,1.73-5.78,3.84-11.55,6.26-17.17,2.39-5.54,5.13-11.03,8.16-16.34,2.99-5.25,6.33-10.42,9.9-15.36,3.55-4.91,7.41-9.7,11.49-14.25,4.06-4.53,8.4-8.9,12.91-12.99,4.51-4.09,9.29-7.99,14.18-11.59,4.92-3.61,10.06-7,15.3-10.05,5.27-3.08,10.74-5.9,16.25-8.37,5.57-2.5,11.31-4.7,17.05-6.55,5.82-1.87,11.77-3.41,17.69-4.58,6.98-1.38,13.31-2.25,19.35-2.67,2.08-.15,4.21-.26,6.33-.31h0c5.96-.16,12.24.05,18.65.63,6.12.55,12.32,1.47,18.42,2.74,6.02,1.25,12.08,2.87,18,4.81,5.86,1.92,11.71,4.19,17.38,6.75,5.64,2.55,11.22,5.43,16.58,8.58,5.36,3.14,10.6,6.6,15.6,10.28,5,3.69,9.86,7.68,14.42,11.85,4.59,4.2,8.99,8.68,13.06,13.31,4.11,4.67,7.98,9.6,11.51,14.65,3.57,5.11,6.85,10.44,9.77,15.86,2.94,5.47,5.57,11.15,7.8,16.86,25.25,64.64,5.05,144-48.05,188.69-30.08,25.32-69.33,38.34-108.5,38.34ZM193.34,32.98c-2.09.06-4.2.16-6.24.31-5.96.41-12.21,1.27-19.11,2.64-5.84,1.15-11.72,2.68-17.47,4.52-5.67,1.82-11.34,4-16.84,6.47-5.44,2.44-10.85,5.23-16.06,8.27-5.17,3.02-10.26,6.37-15.12,9.94-4.84,3.56-9.56,7.41-14.02,11.46-4.46,4.05-8.76,8.37-12.77,12.84-4.03,4.49-7.85,9.23-11.36,14.08-3.54,4.89-6.83,10-9.79,15.18-2.99,5.24-5.7,10.67-8.06,16.14-2.39,5.55-4.47,11.25-6.18,16.95-1.07,3.58-2.02,7.23-2.82,10.86-14.73,66.97,17.17,141.32,75.84,176.8,58.68,35.48,139.34,29.18,191.8-14.98,52.46-44.16,72.42-122.56,47.47-186.43-2.2-5.64-4.79-11.24-7.7-16.64-2.88-5.35-6.12-10.62-9.64-15.66-3.48-4.98-7.31-9.85-11.37-14.47-4.03-4.58-8.37-9-12.91-13.16-4.51-4.13-9.31-8.07-14.26-11.72-4.94-3.64-10.13-7.06-15.42-10.16-5.3-3.11-10.82-5.96-16.4-8.48-5.61-2.53-11.39-4.78-17.18-6.68-5.85-1.92-11.83-3.51-17.78-4.75-6.03-1.25-12.15-2.16-18.19-2.71-6.34-.58-12.53-.79-18.42-.63h0ZM193.31,31.98h0,0Z"/>
</svg>